<svg width="17" height="16" viewBox="0 0 17 16" fill="none" xmlns="http://www.w3.org/2000/svg">
<path d="M16.2607 0.793116L-0.107689 1.7756C-0.235986 1.78329 -0.359325 1.8279 -0.462855 1.90406C-0.566385 1.98022 -0.645692 2.08469 -0.691228 2.20488C-0.733713 2.32139 -0.742855 2.44745 -0.717627 2.56887C-0.692399 2.6903 -0.633801 2.80228 -0.54842 2.89223L4.75054 8.12363L6.59849 15.3244C6.6253 15.4252 6.67539 15.5183 6.74473 15.5962C6.81407 15.6741 6.90073 15.7347 6.99774 15.773C7.09475 15.8114 7.1994 15.8264 7.30328 15.8169C7.40715 15.8075 7.50736 15.7737 7.59584 15.7185C7.6859 15.6658 7.76233 15.5926 7.81898 15.505L16.854 1.8208C16.9206 1.71775 16.9575 1.59832 16.9606 1.47566C16.9636 1.353 16.9328 1.23187 16.8715 1.12561C16.8101 1.01935 16.7206 0.932085 16.6129 0.873419C16.5051 0.814754 16.3832 0.786966 16.2607 0.793116ZM7.5274 13.5333L6.10001 8.11431L11.4347 5.03431L10.7681 3.87961L5.43334 6.95961L1.45406 3.01396L15.0043 2.20362L7.5274 13.5333Z" fill="#A6A6A6"/>
</svg>
