<svg width="38" height="38" viewBox="0 0 38 38" fill="none" xmlns="http://www.w3.org/2000/svg">
<path d="M6.86561 28.7108H31.4098C32.8812 28.7108 33.7488 27.9523 33.7488 26.8371C33.7488 25.2883 32.1842 23.8949 30.837 22.5166C29.8149 21.4483 29.536 19.2494 29.4277 17.4688C29.3041 11.5224 27.7402 7.41867 23.6055 5.93206C23.0326 3.91887 21.4218 2.30804 19.1456 2.30804C16.853 2.30804 15.2587 3.91887 14.67 5.93206C10.5511 7.41867 8.97131 11.5217 8.86295 17.4681C8.7394 19.2494 8.47577 21.4483 7.43845 22.5166C6.10645 23.8949 4.52734 25.2883 4.52734 26.8377C4.52734 27.9523 5.41006 28.7108 6.86561 28.7108ZM14.4222 30.8172C14.6085 33.0782 16.5127 34.9665 19.1456 34.9665C21.7621 34.9665 23.6669 33.0782 23.8684 30.8172H14.4222Z" fill="black"/>
</svg>
