<svg width="15" height="15" viewBox="0 0 15 15" fill="none" xmlns="http://www.w3.org/2000/svg">
<g id="Group 510">
<g id="Group 508">
<g id="Group 10">
<ellipse id="Ellipse 12" cx="3.80566" cy="1.44885" rx="0.937494" ry="1.44885" fill="black"/>
<ellipse id="Ellipse 13" cx="11.9883" cy="1.44885" rx="0.937494" ry="1.44885" fill="black"/>
</g>
<circle id="Ellipse 14" cx="7.55512" cy="6.22186" r="2.07385" stroke="black" stroke-width="1.13636"/>
<path id="Ellipse 15" d="M7.62356 10.7095L7.62356 10.7095C8.66774 10.6566 9.66149 10.5134 10.5488 10.3747C10.6865 10.3532 10.821 10.3319 10.9524 10.3111C11.6811 10.1957 12.3132 10.0956 12.8566 10.0573C13.5166 10.0108 13.9082 10.0697 14.1256 10.1969C14.2735 10.2835 14.4317 10.4549 14.4317 10.9944C14.4317 11.1594 14.324 11.4629 13.9795 11.8675C13.649 12.2557 13.153 12.6736 12.5199 13.0591C11.2538 13.8299 9.50366 14.4319 7.5948 14.4319C5.69416 14.4319 3.91963 13.7896 2.61229 12.9734C1.95923 12.5656 1.43798 12.1238 1.08203 11.7147C0.725468 11.3049 0.588668 10.9908 0.569073 10.8126C0.580528 10.5745 0.634094 10.4367 0.687683 10.3551C0.740096 10.2754 0.818757 10.209 0.953772 10.157C1.26221 10.0383 1.76562 10.0296 2.49855 10.1201C2.93709 10.1742 3.39648 10.2538 3.89012 10.3393C4.2152 10.3956 4.55512 10.4545 4.91373 10.5104C5.78706 10.6465 6.72318 10.7552 7.62356 10.7095Z" stroke="black" stroke-width="1.13636"/>
</g>
</g>
</svg>
