<svg width="9" height="16" viewBox="0 0 9 16" fill="none" xmlns="http://www.w3.org/2000/svg">
<path d="M8.33031 0.398312C8.23717 0.304943 8.12654 0.230865 8.00473 0.180321C7.88292 0.129777 7.75234 0.10376 7.62046 0.10376C7.48859 0.10376 7.358 0.129777 7.2362 0.180321C7.11439 0.230865 7.00375 0.304943 6.91062 0.398312L0.245307 7.06363C0.170951 7.13783 0.11196 7.22597 0.0717099 7.323C0.0314602 7.42003 0.0107422 7.52405 0.0107422 7.62909C0.0107422 7.73414 0.0314602 7.83816 0.0717099 7.93519C0.11196 8.03222 0.170951 8.12036 0.245307 8.19456L6.91062 14.8599C7.30364 15.2529 7.93729 15.2529 8.33031 14.8599C8.72333 14.4669 8.72333 13.8332 8.33031 13.4402L2.52322 7.62508L8.33833 1.80998C8.72333 1.42498 8.72333 0.783312 8.33031 0.398312Z" fill="black"/>
</svg>
