<svg width="17" height="17" viewBox="0 0 17 17" fill="none" xmlns="http://www.w3.org/2000/svg">
<path d="M13.7148 12.3552C13.761 12.4014 13.7977 12.4563 13.8227 12.5166C13.8477 12.577 13.8606 12.6417 13.8606 12.7071C13.8606 12.7724 13.8477 12.8372 13.8227 12.8975C13.7977 12.9579 13.761 13.0128 13.7148 13.059C13.6686 13.1052 13.6137 13.1419 13.5534 13.1669C13.493 13.1919 13.4283 13.2048 13.3629 13.2048C13.2976 13.2048 13.2328 13.1919 13.1725 13.1669C13.1121 13.1419 13.0572 13.1052 13.011 13.059L8.88634 8.93371L4.76169 13.059C4.66836 13.1523 4.54177 13.2048 4.40978 13.2048C4.27779 13.2048 4.15121 13.1523 4.05787 13.059C3.96454 12.9657 3.91211 12.8391 3.91211 12.7071C3.91211 12.5751 3.96454 12.4485 4.05787 12.3552L8.18315 8.23052L4.05787 4.10587C3.96454 4.01253 3.91211 3.88595 3.91211 3.75396C3.91211 3.62197 3.96454 3.49538 4.05787 3.40205C4.15121 3.30872 4.27779 3.25629 4.40978 3.25629C4.54177 3.25629 4.66836 3.30872 4.76169 3.40205L8.88634 7.52733L13.011 3.40205C13.1043 3.30872 13.2309 3.25629 13.3629 3.25629C13.4949 3.25629 13.6215 3.30872 13.7148 3.40205C13.8081 3.49538 13.8606 3.62197 13.8606 3.75396C13.8606 3.88595 13.8081 4.01253 13.7148 4.10587L9.58954 8.23052L13.7148 12.3552Z" fill="#B3B3B3"/>
</svg>
