<svg width="16" height="18" viewBox="0 0 16 18" fill="none" xmlns="http://www.w3.org/2000/svg">
<path d="M15.286 3.33341H12.0602V2.66675C12.0602 2.13632 11.8563 1.62761 11.4933 1.25253C11.1303 0.877462 10.638 0.666748 10.1247 0.666748H6.25372C5.7404 0.666748 5.2481 0.877462 4.88512 1.25253C4.52215 1.62761 4.31823 2.13632 4.31823 2.66675V3.33341H1.09243C0.92132 3.33341 0.75722 3.40365 0.636229 3.52868C0.515238 3.6537 0.447266 3.82327 0.447266 4.00008C0.447266 4.17689 0.515238 4.34646 0.636229 4.47149C0.75722 4.59651 0.92132 4.66675 1.09243 4.66675H1.73759V16.6667C1.73759 17.0204 1.87353 17.3595 2.11551 17.6096C2.3575 17.8596 2.6857 18.0001 3.02791 18.0001H13.3505C13.6927 18.0001 14.0209 17.8596 14.2629 17.6096C14.5049 17.3595 14.6408 17.0204 14.6408 16.6667V4.66675H15.286C15.4571 4.66675 15.6212 4.59651 15.7422 4.47149C15.8632 4.34646 15.9311 4.17689 15.9311 4.00008C15.9311 3.82327 15.8632 3.6537 15.7422 3.52868C15.6212 3.40365 15.4571 3.33341 15.286 3.33341ZM5.60856 2.66675C5.60856 2.48994 5.67653 2.32037 5.79752 2.19534C5.91851 2.07032 6.08261 2.00008 6.25372 2.00008H10.1247C10.2958 2.00008 10.4599 2.07032 10.5809 2.19534C10.7019 2.32037 10.7698 2.48994 10.7698 2.66675V3.33341H5.60856V2.66675ZM13.3505 16.6667H3.02791V4.66675H13.3505V16.6667ZM6.89888 8.00008V13.3334C6.89888 13.5102 6.83091 13.6798 6.70992 13.8048C6.58892 13.9298 6.42483 14.0001 6.25372 14.0001C6.08261 14.0001 5.91851 13.9298 5.79752 13.8048C5.67653 13.6798 5.60856 13.5102 5.60856 13.3334V8.00008C5.60856 7.82327 5.67653 7.6537 5.79752 7.52868C5.91851 7.40365 6.08261 7.33342 6.25372 7.33342C6.42483 7.33342 6.58892 7.40365 6.70992 7.52868C6.83091 7.6537 6.89888 7.82327 6.89888 8.00008ZM10.7698 8.00008V13.3334C10.7698 13.5102 10.7019 13.6798 10.5809 13.8048C10.4599 13.9298 10.2958 14.0001 10.1247 14.0001C9.95358 14.0001 9.78948 13.9298 9.66849 13.8048C9.5475 13.6798 9.47952 13.5102 9.47952 13.3334V8.00008C9.47952 7.82327 9.5475 7.6537 9.66849 7.52868C9.78948 7.40365 9.95358 7.33342 10.1247 7.33342C10.2958 7.33342 10.4599 7.40365 10.5809 7.52868C10.7019 7.6537 10.7698 7.82327 10.7698 8.00008Z" fill="#A6A6A6"/>
</svg>
