<svg width="17" height="14" viewBox="0 0 17 14" fill="none" xmlns="http://www.w3.org/2000/svg">
<g id="Group 513">
<g id="Group 511">
<g id="Group 10">
<path id="Ellipse 13" d="M14.4764 0.524815C14.4764 1.30281 13.9256 1.93349 13.246 1.93349C12.5665 1.93349 12.0156 1.30281 12.0156 0.524815C12.0156 0.305785 12.6892 0.359063 13.2484 0.193342C13.8507 0.0148607 14.4764 -0.25318 14.4764 0.524815Z" fill="black"/>
<path id="Ellipse 14" d="M4.1056 0.524815C4.1056 1.30281 4.65647 1.93349 5.336 1.93349C6.01554 1.93349 6.56641 1.30281 6.56641 0.524815C6.56641 0.305785 5.89287 0.359063 5.3336 0.193342C4.73132 0.0148607 4.1056 -0.253181 4.1056 0.524815Z" fill="black"/>
</g>
<circle id="Ellipse 14_2" cx="8.93931" cy="5.3607" r="2.21858" stroke="black" stroke-width="1.01177"/>
<path id="Line 2" d="M15.6973 13.3552C15.6973 13.3552 11.7307 9.80309 8.67717 9.50129C5.60505 9.19765 1.00028 11.9412 1.00028 11.9412" stroke="black" stroke-width="1.01177"/>
</g>
</g>
</svg>
