<svg width="22" height="22" viewBox="0 0 22 22" fill="none" xmlns="http://www.w3.org/2000/svg">
<path d="M13.952 5.78133C13.4173 5.23672 12.78 4.80344 12.0769 4.50652C11.3738 4.20959 10.6188 4.05491 9.85562 4.05141C9.09241 4.0479 8.33607 4.19564 7.63028 4.48609C6.92449 4.77654 6.28324 5.20394 5.74357 5.74362C5.20389 6.28329 4.77648 6.92454 4.48604 7.63033C4.19559 8.33612 4.04785 9.09246 4.05136 9.85567C4.05486 10.6189 4.20954 11.3738 4.50647 12.0769C4.80339 12.78 5.23667 13.4173 5.78128 13.952C6.86818 15.0191 8.33247 15.6138 9.85562 15.6068C11.3788 15.5998 12.8375 14.9917 13.9146 13.9146C14.9916 12.8376 15.5998 11.3788 15.6068 9.85567C15.6138 8.33252 15.019 6.86823 13.952 5.78133ZM4.52439 4.52444C5.8869 3.16228 7.71831 2.37207 9.64411 2.31541C11.5699 2.25874 13.4446 2.93991 14.8848 4.21962C16.3251 5.49932 17.222 7.28088 17.3923 9.19998C17.5626 11.1191 16.9933 13.0307 15.8008 14.544L20.552 19.2951L19.2951 20.552L14.544 15.8009C13.0302 16.9889 11.1202 17.5547 9.20356 17.3828C7.28695 17.2108 5.50813 16.3141 4.22997 14.8757C2.95182 13.4372 2.27061 11.5652 2.32532 9.64169C2.38003 7.71816 3.16654 5.88796 4.52439 4.52444Z" fill="black"/>
</svg>
