<svg width="43" height="48" viewBox="0 0 43 48" fill="none" xmlns="http://www.w3.org/2000/svg">
<rect x="5.4809" y="7.10664" width="33.1778" height="33.1778" fill="white" stroke="black" stroke-width="1.05556"/>
<line x1="17.2335" y1="33.4396" x2="28.1882" y2="32.5267" stroke="black" stroke-width="1.05556"/>
<path d="M16.7512 17.1899C16.7512 17.639 16.6324 18.0212 16.4682 18.2749C16.3007 18.5339 16.1316 18.602 16.0238 18.602C15.916 18.602 15.7469 18.5339 15.5793 18.2749C15.4151 18.0212 15.2963 17.639 15.2963 17.1899C15.2963 16.7408 15.4151 16.3586 15.5793 16.1049C15.7469 15.8459 15.916 15.7778 16.0238 15.7778C16.1316 15.7778 16.3007 15.8459 16.4682 16.1049C16.6324 16.3586 16.7512 16.7408 16.7512 17.1899Z" fill="#B3B3B3" stroke="black" stroke-width="1.05556"/>
<path d="M27.7063 17.1899C27.7063 17.639 27.5875 18.0212 27.4233 18.2749C27.2557 18.5339 27.0867 18.602 26.9789 18.602C26.8711 18.602 26.702 18.5339 26.5344 18.2749C26.3702 18.0212 26.2514 17.639 26.2514 17.1899C26.2514 16.7408 26.3702 16.3586 26.5344 16.1049C26.702 15.8459 26.8711 15.7778 26.9789 15.7778C27.0867 15.7778 27.2557 15.8459 27.4233 16.1049C27.5875 16.3586 27.7063 16.7408 27.7063 17.1899Z" fill="#B3B3B3" stroke="black" stroke-width="1.05556"/>
<circle cx="21.4994" cy="23.5787" r="3.00967" stroke="black" stroke-width="1.05556"/>
<mask id="path-6-inside-1_5353_13205" fill="white">
<path d="M0.389648 4.52539H42.6108V44.236H0.389648V4.52539Z"/>
</mask>
<path d="M41.5552 4.52539V44.236H43.6663V4.52539H41.5552ZM1.4452 44.236V4.52539H-0.665907V44.236H1.4452Z" fill="black" mask="url(#path-6-inside-1_5353_13205)"/>
<path d="M0.389648 44.0056L7.46454 46.8584L14.3112 44.0056" stroke="black" stroke-width="1.05556"/>
<path d="M28.2334 44.0056L35.6506 47.0866L42.6114 44.0056" stroke="black" stroke-width="1.05556"/>
<path d="M14.3105 44.0056L21.3854 47.0866L28.2321 44.0056" stroke="black" stroke-width="1.05556"/>
<path d="M42.6094 4.63672L35.5345 1.78394L28.6878 4.63672" stroke="black" stroke-width="1.05556"/>
<path d="M14.7666 4.63672L7.34938 1.55572L0.388603 4.63672" stroke="black" stroke-width="1.05556"/>
<path d="M28.6885 4.63672L21.6136 1.55572L14.7669 4.63672" stroke="black" stroke-width="1.05556"/>
</svg>
